<?xml version="1.0" encoding="UTF-8" standalone="no"?>
<!DOCTYPE svg PUBLIC "-//W3C//DTD SVG 1.1//EN"
 "http://www.w3.org/Graphics/SVG/1.1/DTD/svg11.dtd">
<!-- Generated by graphviz version 10.0.1 (20240210.2158)
 -->
<!-- Title: G Pages: 1 -->
<svg width="1368pt" height="1268pt"
 viewBox="0.00 0.00 1368.37 1268.00" xmlns="http://www.w3.org/2000/svg" xmlns:xlink="http://www.w3.org/1999/xlink">
<g id="graph0" class="graph" transform="scale(1 1) rotate(0) translate(4 1264)">
<title>G</title>
<polygon fill="white" stroke="none" points="-4,4 -4,-1264 1364.37,-1264 1364.37,4 -4,4"/>
<!-- 0 -->
<g id="node1" class="node">
<title>0</title>
<ellipse fill="none" stroke="black" cx="261.19" cy="-1242" rx="42.65" ry="18"/>
<text text-anchor="middle" x="261.19" y="-1236.95" font-family="Times,serif" font-size="14.00">program</text>
</g>
<!-- 1 -->
<g id="node2" class="node">
<title>1</title>
<ellipse fill="none" stroke="black" cx="261.19" cy="-1170" rx="31.39" ry="18"/>
<text text-anchor="middle" x="261.19" y="-1164.95" font-family="Times,serif" font-size="14.00">block</text>
</g>
<!-- 0&#45;&#45;1 -->
<g id="edge79" class="edge">
<title>0&#45;&#45;1</title>
<path fill="none" stroke="black" d="M261.19,-1223.7C261.19,-1212.85 261.19,-1198.92 261.19,-1188.1"/>
</g>
<!-- 2 -->
<g id="node3" class="node">
<title>2</title>
<ellipse fill="none" stroke="black" cx="261.19" cy="-1098" rx="66.71" ry="18"/>
<text text-anchor="middle" x="261.19" y="-1092.95" font-family="Times,serif" font-size="14.00">list assignment</text>
</g>
<!-- 1&#45;&#45;2 -->
<g id="edge78" class="edge">
<title>1&#45;&#45;2</title>
<path fill="none" stroke="black" d="M261.19,-1151.7C261.19,-1140.85 261.19,-1126.92 261.19,-1116.1"/>
</g>
<!-- 3 -->
<g id="node4" class="node">
<title>3</title>
<ellipse fill="none" stroke="black" cx="209.19" cy="-1026" rx="52.89" ry="18"/>
<text text-anchor="middle" x="209.19" y="-1020.95" font-family="Times,serif" font-size="14.00">assignment</text>
</g>
<!-- 2&#45;&#45;3 -->
<g id="edge10" class="edge">
<title>2&#45;&#45;3</title>
<path fill="none" stroke="black" d="M248.6,-1080.05C240.42,-1069.05 229.81,-1054.76 221.66,-1043.79"/>
</g>
<!-- 13 -->
<g id="node14" class="node">
<title>13</title>
<ellipse fill="none" stroke="black" cx="355.19" cy="-1026" rx="34.46" ry="18"/>
<text text-anchor="middle" x="355.19" y="-1020.95" font-family="Times,serif" font-size="14.00">tail v1</text>
</g>
<!-- 2&#45;&#45;13 -->
<g id="edge77" class="edge">
<title>2&#45;&#45;13</title>
<path fill="none" stroke="black" d="M282.99,-1080.76C299.04,-1068.81 320.66,-1052.71 336.05,-1041.25"/>
</g>
<!-- 4 -->
<g id="node5" class="node">
<title>4</title>
<ellipse fill="none" stroke="black" cx="71.19" cy="-954" rx="27" ry="18"/>
<text text-anchor="middle" x="71.19" y="-948.95" font-family="Times,serif" font-size="14.00">j</text>
</g>
<!-- 3&#45;&#45;4 -->
<g id="edge1" class="edge">
<title>3&#45;&#45;4</title>
<path fill="none" stroke="black" d="M180.59,-1010.5C154.22,-997.12 115.7,-977.58 92.1,-965.61"/>
</g>
<!-- 5 -->
<g id="node6" class="node">
<title>5</title>
<ellipse fill="none" stroke="black" cx="143.19" cy="-954" rx="27" ry="18"/>
<text text-anchor="middle" x="143.19" y="-948.95" font-family="Times,serif" font-size="14.00">:=</text>
</g>
<!-- 3&#45;&#45;5 -->
<g id="edge2" class="edge">
<title>3&#45;&#45;5</title>
<path fill="none" stroke="black" d="M193.55,-1008.41C182.41,-996.61 167.6,-980.89 156.92,-969.57"/>
</g>
<!-- 6 -->
<g id="node7" class="node">
<title>6</title>
<ellipse fill="none" stroke="black" cx="235.19" cy="-954" rx="46.75" ry="18"/>
<text text-anchor="middle" x="235.19" y="-948.95" font-family="Times,serif" font-size="14.00">statement</text>
</g>
<!-- 3&#45;&#45;6 -->
<g id="edge9" class="edge">
<title>3&#45;&#45;6</title>
<path fill="none" stroke="black" d="M215.61,-1007.7C219.64,-996.85 224.82,-982.92 228.83,-972.1"/>
</g>
<!-- 7 -->
<g id="node8" class="node">
<title>7</title>
<ellipse fill="none" stroke="black" cx="233.19" cy="-882" rx="39.07" ry="18"/>
<text text-anchor="middle" x="233.19" y="-876.95" font-family="Times,serif" font-size="14.00">relation</text>
</g>
<!-- 6&#45;&#45;7 -->
<g id="edge8" class="edge">
<title>6&#45;&#45;7</title>
<path fill="none" stroke="black" d="M234.69,-935.7C234.38,-924.85 233.98,-910.92 233.67,-900.1"/>
</g>
<!-- 8 -->
<g id="node9" class="node">
<title>8</title>
<ellipse fill="none" stroke="black" cx="206.19" cy="-810" rx="74.38" ry="18"/>
<text text-anchor="middle" x="206.19" y="-804.95" font-family="Times,serif" font-size="14.00">simple statement</text>
</g>
<!-- 7&#45;&#45;8 -->
<g id="edge7" class="edge">
<title>7&#45;&#45;8</title>
<path fill="none" stroke="black" d="M226.65,-864.05C222.47,-853.21 217.06,-839.18 212.85,-828.28"/>
</g>
<!-- 9 -->
<g id="node10" class="node">
<title>9</title>
<ellipse fill="none" stroke="black" cx="152.19" cy="-738" rx="28.32" ry="18"/>
<text text-anchor="middle" x="152.19" y="-732.95" font-family="Times,serif" font-size="14.00">term</text>
</g>
<!-- 8&#45;&#45;9 -->
<g id="edge6" class="edge">
<title>8&#45;&#45;9</title>
<path fill="none" stroke="black" d="M193.11,-792.05C184.25,-780.56 172.63,-765.5 164.03,-754.36"/>
</g>
<!-- 10 -->
<g id="node11" class="node">
<title>10</title>
<ellipse fill="none" stroke="black" cx="44.19" cy="-666" rx="44.19" ry="18"/>
<text text-anchor="middle" x="44.19" y="-660.95" font-family="Times,serif" font-size="14.00">factor v1</text>
</g>
<!-- 9&#45;&#45;10 -->
<g id="edge5" class="edge">
<title>9&#45;&#45;10</title>
<path fill="none" stroke="black" d="M132.88,-724.49C114.43,-712.53 86.62,-694.51 67.07,-681.83"/>
</g>
<!-- 11 -->
<g id="node12" class="node">
<title>11</title>
<ellipse fill="none" stroke="black" cx="43.19" cy="-594" rx="40.6" ry="18"/>
<text text-anchor="middle" x="43.19" y="-588.95" font-family="Times,serif" font-size="14.00">primary</text>
</g>
<!-- 10&#45;&#45;11 -->
<g id="edge4" class="edge">
<title>10&#45;&#45;11</title>
<path fill="none" stroke="black" d="M43.94,-647.7C43.78,-636.85 43.58,-622.92 43.43,-612.1"/>
</g>
<!-- 12 -->
<g id="node13" class="node">
<title>12</title>
<ellipse fill="none" stroke="black" cx="43.19" cy="-522" rx="27" ry="18"/>
<text text-anchor="middle" x="43.19" y="-516.95" font-family="Times,serif" font-size="14.00">10</text>
</g>
<!-- 11&#45;&#45;12 -->
<g id="edge3" class="edge">
<title>11&#45;&#45;12</title>
<path fill="none" stroke="black" d="M43.19,-575.7C43.19,-564.85 43.19,-550.92 43.19,-540.1"/>
</g>
<!-- 14 -->
<g id="node15" class="node">
<title>14</title>
<ellipse fill="none" stroke="black" cx="330.19" cy="-954" rx="27" ry="18"/>
<text text-anchor="middle" x="330.19" y="-948.95" font-family="Times,serif" font-size="14.00">;</text>
</g>
<!-- 13&#45;&#45;14 -->
<g id="edge11" class="edge">
<title>13&#45;&#45;14</title>
<path fill="none" stroke="black" d="M349.13,-1008.05C345.2,-997.05 340.1,-982.76 336.18,-971.79"/>
</g>
<!-- 15 -->
<g id="node16" class="node">
<title>15</title>
<ellipse fill="none" stroke="black" cx="428.19" cy="-954" rx="52.89" ry="18"/>
<text text-anchor="middle" x="428.19" y="-948.95" font-family="Times,serif" font-size="14.00">assignment</text>
</g>
<!-- 13&#45;&#45;15 -->
<g id="edge75" class="edge">
<title>13&#45;&#45;15</title>
<path fill="none" stroke="black" d="M371.03,-1009.81C382.85,-998.47 398.99,-983 411.1,-971.38"/>
</g>
<!-- 79 -->
<g id="node80" class="node">
<title>79</title>
<ellipse fill="none" stroke="black" cx="533.19" cy="-954" rx="34.46" ry="18"/>
<text text-anchor="middle" x="533.19" y="-948.95" font-family="Times,serif" font-size="14.00">tail v2</text>
</g>
<!-- 13&#45;&#45;79 -->
<g id="edge76" class="edge">
<title>13&#45;&#45;79</title>
<path fill="none" stroke="black" d="M382.34,-1014.36C409.61,-1003.67 452.82,-986.72 490.19,-972 495.41,-969.94 501,-967.74 506.35,-965.62"/>
</g>
<!-- 16 -->
<g id="node17" class="node">
<title>16</title>
<ellipse fill="none" stroke="black" cx="357.19" cy="-882" rx="27" ry="18"/>
<text text-anchor="middle" x="357.19" y="-876.95" font-family="Times,serif" font-size="14.00">i</text>
</g>
<!-- 15&#45;&#45;16 -->
<g id="edge12" class="edge">
<title>15&#45;&#45;16</title>
<path fill="none" stroke="black" d="M411.72,-936.76C399.59,-924.81 383.26,-908.71 371.64,-897.25"/>
</g>
<!-- 17 -->
<g id="node18" class="node">
<title>17</title>
<ellipse fill="none" stroke="black" cx="429.19" cy="-882" rx="27" ry="18"/>
<text text-anchor="middle" x="429.19" y="-876.95" font-family="Times,serif" font-size="14.00">:=</text>
</g>
<!-- 15&#45;&#45;17 -->
<g id="edge13" class="edge">
<title>15&#45;&#45;17</title>
<path fill="none" stroke="black" d="M428.43,-935.7C428.59,-924.85 428.79,-910.92 428.94,-900.1"/>
</g>
<!-- 18 -->
<g id="node19" class="node">
<title>18</title>
<ellipse fill="none" stroke="black" cx="528.19" cy="-882" rx="46.75" ry="18"/>
<text text-anchor="middle" x="528.19" y="-876.95" font-family="Times,serif" font-size="14.00">statement</text>
</g>
<!-- 15&#45;&#45;18 -->
<g id="edge74" class="edge">
<title>15&#45;&#45;18</title>
<path fill="none" stroke="black" d="M450.38,-937.46C467.07,-925.78 489.81,-909.86 506.4,-898.25"/>
</g>
<!-- 19 -->
<g id="node20" class="node">
<title>19</title>
<ellipse fill="none" stroke="black" cx="412.19" cy="-810" rx="39.07" ry="18"/>
<text text-anchor="middle" x="412.19" y="-804.95" font-family="Times,serif" font-size="14.00">relation</text>
</g>
<!-- 18&#45;&#45;19 -->
<g id="edge42" class="edge">
<title>18&#45;&#45;19</title>
<path fill="none" stroke="black" d="M503.87,-866.33C483.67,-854.14 455.14,-836.92 435.29,-824.94"/>
</g>
<!-- 48 -->
<g id="node49" class="node">
<title>48</title>
<ellipse fill="none" stroke="black" cx="542.19" cy="-810" rx="73.36" ry="18"/>
<text text-anchor="middle" x="542.19" y="-804.95" font-family="Times,serif" font-size="14.00">logical operation</text>
</g>
<!-- 18&#45;&#45;48 -->
<g id="edge44" class="edge">
<title>18&#45;&#45;48</title>
<path fill="none" stroke="black" d="M531.65,-863.7C533.82,-852.85 536.6,-838.92 538.77,-828.1"/>
</g>
<!-- 50 -->
<g id="node51" class="node">
<title>50</title>
<ellipse fill="none" stroke="black" cx="800.19" cy="-810" rx="39.07" ry="18"/>
<text text-anchor="middle" x="800.19" y="-804.95" font-family="Times,serif" font-size="14.00">relation</text>
</g>
<!-- 18&#45;&#45;50 -->
<g id="edge73" class="edge">
<title>18&#45;&#45;50</title>
<path fill="none" stroke="black" d="M566.29,-871.19C619.66,-857.46 715.8,-832.72 766.61,-819.64"/>
</g>
<!-- 20 -->
<g id="node21" class="node">
<title>20</title>
<ellipse fill="none" stroke="black" cx="412.19" cy="-738" rx="74.38" ry="18"/>
<text text-anchor="middle" x="412.19" y="-732.95" font-family="Times,serif" font-size="14.00">simple statement</text>
</g>
<!-- 19&#45;&#45;20 -->
<g id="edge41" class="edge">
<title>19&#45;&#45;20</title>
<path fill="none" stroke="black" d="M412.19,-791.7C412.19,-780.85 412.19,-766.92 412.19,-756.1"/>
</g>
<!-- 21 -->
<g id="node22" class="node">
<title>21</title>
<ellipse fill="none" stroke="black" cx="412.19" cy="-666" rx="28.32" ry="18"/>
<text text-anchor="middle" x="412.19" y="-660.95" font-family="Times,serif" font-size="14.00">term</text>
</g>
<!-- 20&#45;&#45;21 -->
<g id="edge40" class="edge">
<title>20&#45;&#45;21</title>
<path fill="none" stroke="black" d="M412.19,-719.7C412.19,-708.85 412.19,-694.92 412.19,-684.1"/>
</g>
<!-- 22 -->
<g id="node23" class="node">
<title>22</title>
<ellipse fill="none" stroke="black" cx="146.19" cy="-594" rx="44.19" ry="18"/>
<text text-anchor="middle" x="146.19" y="-588.95" font-family="Times,serif" font-size="14.00">factor v1</text>
</g>
<!-- 21&#45;&#45;22 -->
<g id="edge16" class="edge">
<title>21&#45;&#45;22</title>
<path fill="none" stroke="black" d="M385.8,-659.03C345.41,-649.76 265.89,-630.98 199.19,-612 192.87,-610.2 186.16,-608.16 179.73,-606.13"/>
</g>
<!-- 25 -->
<g id="node26" class="node">
<title>25</title>
<ellipse fill="none" stroke="black" cx="279.19" cy="-594" rx="71.31" ry="18"/>
<text text-anchor="middle" x="279.19" y="-588.95" font-family="Times,serif" font-size="14.00">mdmr operation</text>
</g>
<!-- 21&#45;&#45;25 -->
<g id="edge18" class="edge">
<title>21&#45;&#45;25</title>
<path fill="none" stroke="black" d="M390.82,-653.75C368.64,-642.08 333.79,-623.74 308.93,-610.65"/>
</g>
<!-- 27 -->
<g id="node28" class="node">
<title>27</title>
<ellipse fill="none" stroke="black" cx="412.19" cy="-594" rx="44.19" ry="18"/>
<text text-anchor="middle" x="412.19" y="-588.95" font-family="Times,serif" font-size="14.00">factor v1</text>
</g>
<!-- 21&#45;&#45;27 -->
<g id="edge34" class="edge">
<title>21&#45;&#45;27</title>
<path fill="none" stroke="black" d="M412.19,-647.7C412.19,-636.85 412.19,-622.92 412.19,-612.1"/>
</g>
<!-- 43 -->
<g id="node44" class="node">
<title>43</title>
<ellipse fill="none" stroke="black" cx="545.19" cy="-594" rx="71.31" ry="18"/>
<text text-anchor="middle" x="545.19" y="-588.95" font-family="Times,serif" font-size="14.00">mdmr operation</text>
</g>
<!-- 21&#45;&#45;43 -->
<g id="edge36" class="edge">
<title>21&#45;&#45;43</title>
<path fill="none" stroke="black" d="M433.55,-653.75C455.73,-642.08 490.58,-623.74 515.44,-610.65"/>
</g>
<!-- 45 -->
<g id="node46" class="node">
<title>45</title>
<ellipse fill="none" stroke="black" cx="678.19" cy="-594" rx="44.19" ry="18"/>
<text text-anchor="middle" x="678.19" y="-588.95" font-family="Times,serif" font-size="14.00">factor v1</text>
</g>
<!-- 21&#45;&#45;45 -->
<g id="edge39" class="edge">
<title>21&#45;&#45;45</title>
<path fill="none" stroke="black" d="M438.57,-659.03C478.96,-649.76 558.48,-630.98 625.19,-612 631.51,-610.2 638.21,-608.16 644.64,-606.13"/>
</g>
<!-- 23 -->
<g id="node24" class="node">
<title>23</title>
<ellipse fill="none" stroke="black" cx="146.19" cy="-522" rx="40.6" ry="18"/>
<text text-anchor="middle" x="146.19" y="-516.95" font-family="Times,serif" font-size="14.00">primary</text>
</g>
<!-- 22&#45;&#45;23 -->
<g id="edge15" class="edge">
<title>22&#45;&#45;23</title>
<path fill="none" stroke="black" d="M146.19,-575.7C146.19,-564.85 146.19,-550.92 146.19,-540.1"/>
</g>
<!-- 24 -->
<g id="node25" class="node">
<title>24</title>
<ellipse fill="none" stroke="black" cx="146.19" cy="-450" rx="27" ry="18"/>
<text text-anchor="middle" x="146.19" y="-444.95" font-family="Times,serif" font-size="14.00">j</text>
</g>
<!-- 23&#45;&#45;24 -->
<g id="edge14" class="edge">
<title>23&#45;&#45;24</title>
<path fill="none" stroke="black" d="M146.19,-503.7C146.19,-492.85 146.19,-478.92 146.19,-468.1"/>
</g>
<!-- 26 -->
<g id="node27" class="node">
<title>26</title>
<ellipse fill="none" stroke="black" cx="279.19" cy="-522" rx="27" ry="18"/>
<text text-anchor="middle" x="279.19" y="-516.95" font-family="Times,serif" font-size="14.00">*</text>
</g>
<!-- 25&#45;&#45;26 -->
<g id="edge17" class="edge">
<title>25&#45;&#45;26</title>
<path fill="none" stroke="black" d="M279.19,-575.7C279.19,-564.85 279.19,-550.92 279.19,-540.1"/>
</g>
<!-- 28 -->
<g id="node29" class="node">
<title>28</title>
<ellipse fill="none" stroke="black" cx="412.19" cy="-522" rx="40.6" ry="18"/>
<text text-anchor="middle" x="412.19" y="-516.95" font-family="Times,serif" font-size="14.00">primary</text>
</g>
<!-- 27&#45;&#45;28 -->
<g id="edge33" class="edge">
<title>27&#45;&#45;28</title>
<path fill="none" stroke="black" d="M412.19,-575.7C412.19,-564.85 412.19,-550.92 412.19,-540.1"/>
</g>
<!-- 29 -->
<g id="node30" class="node">
<title>29</title>
<ellipse fill="none" stroke="black" cx="320.19" cy="-450" rx="27" ry="18"/>
<text text-anchor="middle" x="320.19" y="-444.95" font-family="Times,serif" font-size="14.00">(</text>
</g>
<!-- 28&#45;&#45;29 -->
<g id="edge30" class="edge">
<title>28&#45;&#45;29</title>
<path fill="none" stroke="black" d="M392.68,-506.15C376.32,-493.71 353.2,-476.12 337.5,-464.17"/>
</g>
<!-- 30 -->
<g id="node31" class="node">
<title>30</title>
<ellipse fill="none" stroke="black" cx="412.19" cy="-450" rx="46.75" ry="18"/>
<text text-anchor="middle" x="412.19" y="-444.95" font-family="Times,serif" font-size="14.00">statement</text>
</g>
<!-- 28&#45;&#45;30 -->
<g id="edge31" class="edge">
<title>28&#45;&#45;30</title>
<path fill="none" stroke="black" d="M412.19,-503.7C412.19,-492.85 412.19,-478.92 412.19,-468.1"/>
</g>
<!-- 42 -->
<g id="node43" class="node">
<title>42</title>
<ellipse fill="none" stroke="black" cx="504.19" cy="-450" rx="27" ry="18"/>
<text text-anchor="middle" x="504.19" y="-444.95" font-family="Times,serif" font-size="14.00">)</text>
</g>
<!-- 28&#45;&#45;42 -->
<g id="edge32" class="edge">
<title>28&#45;&#45;42</title>
<path fill="none" stroke="black" d="M431.7,-506.15C448.05,-493.71 471.17,-476.12 486.87,-464.17"/>
</g>
<!-- 31 -->
<g id="node32" class="node">
<title>31</title>
<ellipse fill="none" stroke="black" cx="412.19" cy="-378" rx="39.07" ry="18"/>
<text text-anchor="middle" x="412.19" y="-372.95" font-family="Times,serif" font-size="14.00">relation</text>
</g>
<!-- 30&#45;&#45;31 -->
<g id="edge29" class="edge">
<title>30&#45;&#45;31</title>
<path fill="none" stroke="black" d="M412.19,-431.7C412.19,-420.85 412.19,-406.92 412.19,-396.1"/>
</g>
<!-- 32 -->
<g id="node33" class="node">
<title>32</title>
<ellipse fill="none" stroke="black" cx="412.19" cy="-306" rx="74.38" ry="18"/>
<text text-anchor="middle" x="412.19" y="-300.95" font-family="Times,serif" font-size="14.00">simple statement</text>
</g>
<!-- 31&#45;&#45;32 -->
<g id="edge28" class="edge">
<title>31&#45;&#45;32</title>
<path fill="none" stroke="black" d="M412.19,-359.7C412.19,-348.85 412.19,-334.92 412.19,-324.1"/>
</g>
<!-- 33 -->
<g id="node34" class="node">
<title>33</title>
<ellipse fill="none" stroke="black" cx="412.19" cy="-234" rx="28.32" ry="18"/>
<text text-anchor="middle" x="412.19" y="-228.95" font-family="Times,serif" font-size="14.00">term</text>
</g>
<!-- 32&#45;&#45;33 -->
<g id="edge27" class="edge">
<title>32&#45;&#45;33</title>
<path fill="none" stroke="black" d="M412.19,-287.7C412.19,-276.85 412.19,-262.92 412.19,-252.1"/>
</g>
<!-- 34 -->
<g id="node35" class="node">
<title>34</title>
<ellipse fill="none" stroke="black" cx="279.19" cy="-162" rx="44.19" ry="18"/>
<text text-anchor="middle" x="279.19" y="-156.95" font-family="Times,serif" font-size="14.00">factor v1</text>
</g>
<!-- 33&#45;&#45;34 -->
<g id="edge21" class="edge">
<title>33&#45;&#45;34</title>
<path fill="none" stroke="black" d="M390.82,-221.75C367.61,-209.54 330.53,-190.02 305.54,-176.87"/>
</g>
<!-- 37 -->
<g id="node38" class="node">
<title>37</title>
<ellipse fill="none" stroke="black" cx="412.19" cy="-162" rx="71.31" ry="18"/>
<text text-anchor="middle" x="412.19" y="-156.95" font-family="Times,serif" font-size="14.00">mdmr operation</text>
</g>
<!-- 33&#45;&#45;37 -->
<g id="edge23" class="edge">
<title>33&#45;&#45;37</title>
<path fill="none" stroke="black" d="M412.19,-215.7C412.19,-204.85 412.19,-190.92 412.19,-180.1"/>
</g>
<!-- 39 -->
<g id="node40" class="node">
<title>39</title>
<ellipse fill="none" stroke="black" cx="545.19" cy="-162" rx="44.19" ry="18"/>
<text text-anchor="middle" x="545.19" y="-156.95" font-family="Times,serif" font-size="14.00">factor v1</text>
</g>
<!-- 33&#45;&#45;39 -->
<g id="edge26" class="edge">
<title>33&#45;&#45;39</title>
<path fill="none" stroke="black" d="M433.55,-221.75C456.76,-209.54 493.84,-190.02 518.84,-176.87"/>
</g>
<!-- 35 -->
<g id="node36" class="node">
<title>35</title>
<ellipse fill="none" stroke="black" cx="279.19" cy="-90" rx="40.6" ry="18"/>
<text text-anchor="middle" x="279.19" y="-84.95" font-family="Times,serif" font-size="14.00">primary</text>
</g>
<!-- 34&#45;&#45;35 -->
<g id="edge20" class="edge">
<title>34&#45;&#45;35</title>
<path fill="none" stroke="black" d="M279.19,-143.7C279.19,-132.85 279.19,-118.92 279.19,-108.1"/>
</g>
<!-- 36 -->
<g id="node37" class="node">
<title>36</title>
<ellipse fill="none" stroke="black" cx="279.19" cy="-18" rx="27" ry="18"/>
<text text-anchor="middle" x="279.19" y="-12.95" font-family="Times,serif" font-size="14.00">q</text>
</g>
<!-- 35&#45;&#45;36 -->
<g id="edge19" class="edge">
<title>35&#45;&#45;36</title>
<path fill="none" stroke="black" d="M279.19,-71.7C279.19,-60.85 279.19,-46.92 279.19,-36.1"/>
</g>
<!-- 38 -->
<g id="node39" class="node">
<title>38</title>
<ellipse fill="none" stroke="black" cx="412.19" cy="-90" rx="27" ry="18"/>
<text text-anchor="middle" x="412.19" y="-84.95" font-family="Times,serif" font-size="14.00">*</text>
</g>
<!-- 37&#45;&#45;38 -->
<g id="edge22" class="edge">
<title>37&#45;&#45;38</title>
<path fill="none" stroke="black" d="M412.19,-143.7C412.19,-132.85 412.19,-118.92 412.19,-108.1"/>
</g>
<!-- 40 -->
<g id="node41" class="node">
<title>40</title>
<ellipse fill="none" stroke="black" cx="545.19" cy="-90" rx="40.6" ry="18"/>
<text text-anchor="middle" x="545.19" y="-84.95" font-family="Times,serif" font-size="14.00">primary</text>
</g>
<!-- 39&#45;&#45;40 -->
<g id="edge25" class="edge">
<title>39&#45;&#45;40</title>
<path fill="none" stroke="black" d="M545.19,-143.7C545.19,-132.85 545.19,-118.92 545.19,-108.1"/>
</g>
<!-- 41 -->
<g id="node42" class="node">
<title>41</title>
<ellipse fill="none" stroke="black" cx="545.19" cy="-18" rx="27" ry="18"/>
<text text-anchor="middle" x="545.19" y="-12.95" font-family="Times,serif" font-size="14.00">10</text>
</g>
<!-- 40&#45;&#45;41 -->
<g id="edge24" class="edge">
<title>40&#45;&#45;41</title>
<path fill="none" stroke="black" d="M545.19,-71.7C545.19,-60.85 545.19,-46.92 545.19,-36.1"/>
</g>
<!-- 44 -->
<g id="node45" class="node">
<title>44</title>
<ellipse fill="none" stroke="black" cx="545.19" cy="-522" rx="27" ry="18"/>
<text text-anchor="middle" x="545.19" y="-516.95" font-family="Times,serif" font-size="14.00">/</text>
</g>
<!-- 43&#45;&#45;44 -->
<g id="edge35" class="edge">
<title>43&#45;&#45;44</title>
<path fill="none" stroke="black" d="M545.19,-575.7C545.19,-564.85 545.19,-550.92 545.19,-540.1"/>
</g>
<!-- 46 -->
<g id="node47" class="node">
<title>46</title>
<ellipse fill="none" stroke="black" cx="678.19" cy="-522" rx="40.6" ry="18"/>
<text text-anchor="middle" x="678.19" y="-516.95" font-family="Times,serif" font-size="14.00">primary</text>
</g>
<!-- 45&#45;&#45;46 -->
<g id="edge38" class="edge">
<title>45&#45;&#45;46</title>
<path fill="none" stroke="black" d="M678.19,-575.7C678.19,-564.85 678.19,-550.92 678.19,-540.1"/>
</g>
<!-- 47 -->
<g id="node48" class="node">
<title>47</title>
<ellipse fill="none" stroke="black" cx="678.19" cy="-450" rx="27" ry="18"/>
<text text-anchor="middle" x="678.19" y="-444.95" font-family="Times,serif" font-size="14.00">42</text>
</g>
<!-- 46&#45;&#45;47 -->
<g id="edge37" class="edge">
<title>46&#45;&#45;47</title>
<path fill="none" stroke="black" d="M678.19,-503.7C678.19,-492.85 678.19,-478.92 678.19,-468.1"/>
</g>
<!-- 49 -->
<g id="node50" class="node">
<title>49</title>
<ellipse fill="none" stroke="black" cx="542.19" cy="-738" rx="27" ry="18"/>
<text text-anchor="middle" x="542.19" y="-732.95" font-family="Times,serif" font-size="14.00">or</text>
</g>
<!-- 48&#45;&#45;49 -->
<g id="edge43" class="edge">
<title>48&#45;&#45;49</title>
<path fill="none" stroke="black" d="M542.19,-791.7C542.19,-780.85 542.19,-766.92 542.19,-756.1"/>
</g>
<!-- 51 -->
<g id="node52" class="node">
<title>51</title>
<ellipse fill="none" stroke="black" cx="861.19" cy="-738" rx="74.38" ry="18"/>
<text text-anchor="middle" x="861.19" y="-732.95" font-family="Times,serif" font-size="14.00">simple statement</text>
</g>
<!-- 50&#45;&#45;51 -->
<g id="edge72" class="edge">
<title>50&#45;&#45;51</title>
<path fill="none" stroke="black" d="M814.33,-792.76C823.91,-781.78 836.53,-767.29 846.26,-756.12"/>
</g>
<!-- 52 -->
<g id="node53" class="node">
<title>52</title>
<ellipse fill="none" stroke="black" cx="983.19" cy="-666" rx="28.32" ry="18"/>
<text text-anchor="middle" x="983.19" y="-660.95" font-family="Times,serif" font-size="14.00">term</text>
</g>
<!-- 51&#45;&#45;52 -->
<g id="edge71" class="edge">
<title>51&#45;&#45;52</title>
<path fill="none" stroke="black" d="M889.18,-720.94C911.55,-708.1 942.39,-690.41 962.56,-678.84"/>
</g>
<!-- 53 -->
<g id="node54" class="node">
<title>53</title>
<ellipse fill="none" stroke="black" cx="784.19" cy="-594" rx="44.19" ry="18"/>
<text text-anchor="middle" x="784.19" y="-588.95" font-family="Times,serif" font-size="14.00">factor v1</text>
</g>
<!-- 52&#45;&#45;53 -->
<g id="edge47" class="edge">
<title>52&#45;&#45;53</title>
<path fill="none" stroke="black" d="M958.78,-656.42C923.08,-643.86 856.54,-620.45 816.71,-606.44"/>
</g>
<!-- 56 -->
<g id="node57" class="node">
<title>56</title>
<ellipse fill="none" stroke="black" cx="917.19" cy="-594" rx="71.31" ry="18"/>
<text text-anchor="middle" x="917.19" y="-588.95" font-family="Times,serif" font-size="14.00">mdmr operation</text>
</g>
<!-- 52&#45;&#45;56 -->
<g id="edge49" class="edge">
<title>52&#45;&#45;56</title>
<path fill="none" stroke="black" d="M969.19,-650.15C958.59,-638.92 944.03,-623.48 933.02,-611.79"/>
</g>
<!-- 58 -->
<g id="node59" class="node">
<title>58</title>
<ellipse fill="none" stroke="black" cx="1050.19" cy="-594" rx="44.19" ry="18"/>
<text text-anchor="middle" x="1050.19" y="-588.95" font-family="Times,serif" font-size="14.00">factor v1</text>
</g>
<!-- 52&#45;&#45;58 -->
<g id="edge65" class="edge">
<title>52&#45;&#45;58</title>
<path fill="none" stroke="black" d="M997.4,-650.15C1008.3,-638.76 1023.35,-623.03 1034.59,-611.29"/>
</g>
<!-- 74 -->
<g id="node75" class="node">
<title>74</title>
<ellipse fill="none" stroke="black" cx="1183.19" cy="-594" rx="71.31" ry="18"/>
<text text-anchor="middle" x="1183.19" y="-588.95" font-family="Times,serif" font-size="14.00">mdmr operation</text>
</g>
<!-- 52&#45;&#45;74 -->
<g id="edge67" class="edge">
<title>52&#45;&#45;74</title>
<path fill="none" stroke="black" d="M1007.71,-656.42C1041.3,-644.66 1102.04,-623.4 1142.5,-609.24"/>
</g>
<!-- 76 -->
<g id="node77" class="node">
<title>76</title>
<ellipse fill="none" stroke="black" cx="1316.19" cy="-594" rx="44.19" ry="18"/>
<text text-anchor="middle" x="1316.19" y="-588.95" font-family="Times,serif" font-size="14.00">factor v1</text>
</g>
<!-- 52&#45;&#45;76 -->
<g id="edge70" class="edge">
<title>52&#45;&#45;76</title>
<path fill="none" stroke="black" d="M1010.86,-660.92C1061.39,-653.22 1171.84,-635.2 1263.19,-612 1269.65,-610.36 1276.48,-608.37 1283.01,-606.33"/>
</g>
<!-- 54 -->
<g id="node55" class="node">
<title>54</title>
<ellipse fill="none" stroke="black" cx="784.19" cy="-522" rx="40.6" ry="18"/>
<text text-anchor="middle" x="784.19" y="-516.95" font-family="Times,serif" font-size="14.00">primary</text>
</g>
<!-- 53&#45;&#45;54 -->
<g id="edge46" class="edge">
<title>53&#45;&#45;54</title>
<path fill="none" stroke="black" d="M784.19,-575.7C784.19,-564.85 784.19,-550.92 784.19,-540.1"/>
</g>
<!-- 55 -->
<g id="node56" class="node">
<title>55</title>
<ellipse fill="none" stroke="black" cx="784.19" cy="-450" rx="27" ry="18"/>
<text text-anchor="middle" x="784.19" y="-444.95" font-family="Times,serif" font-size="14.00">j</text>
</g>
<!-- 54&#45;&#45;55 -->
<g id="edge45" class="edge">
<title>54&#45;&#45;55</title>
<path fill="none" stroke="black" d="M784.19,-503.7C784.19,-492.85 784.19,-478.92 784.19,-468.1"/>
</g>
<!-- 57 -->
<g id="node58" class="node">
<title>57</title>
<ellipse fill="none" stroke="black" cx="917.19" cy="-522" rx="27" ry="18"/>
<text text-anchor="middle" x="917.19" y="-516.95" font-family="Times,serif" font-size="14.00">*</text>
</g>
<!-- 56&#45;&#45;57 -->
<g id="edge48" class="edge">
<title>56&#45;&#45;57</title>
<path fill="none" stroke="black" d="M917.19,-575.7C917.19,-564.85 917.19,-550.92 917.19,-540.1"/>
</g>
<!-- 59 -->
<g id="node60" class="node">
<title>59</title>
<ellipse fill="none" stroke="black" cx="1050.19" cy="-522" rx="40.6" ry="18"/>
<text text-anchor="middle" x="1050.19" y="-516.95" font-family="Times,serif" font-size="14.00">primary</text>
</g>
<!-- 58&#45;&#45;59 -->
<g id="edge64" class="edge">
<title>58&#45;&#45;59</title>
<path fill="none" stroke="black" d="M1050.19,-575.7C1050.19,-564.85 1050.19,-550.92 1050.19,-540.1"/>
</g>
<!-- 60 -->
<g id="node61" class="node">
<title>60</title>
<ellipse fill="none" stroke="black" cx="958.19" cy="-450" rx="27" ry="18"/>
<text text-anchor="middle" x="958.19" y="-444.95" font-family="Times,serif" font-size="14.00">(</text>
</g>
<!-- 59&#45;&#45;60 -->
<g id="edge61" class="edge">
<title>59&#45;&#45;60</title>
<path fill="none" stroke="black" d="M1030.68,-506.15C1014.32,-493.71 991.2,-476.12 975.5,-464.17"/>
</g>
<!-- 61 -->
<g id="node62" class="node">
<title>61</title>
<ellipse fill="none" stroke="black" cx="1050.19" cy="-450" rx="46.75" ry="18"/>
<text text-anchor="middle" x="1050.19" y="-444.95" font-family="Times,serif" font-size="14.00">statement</text>
</g>
<!-- 59&#45;&#45;61 -->
<g id="edge62" class="edge">
<title>59&#45;&#45;61</title>
<path fill="none" stroke="black" d="M1050.19,-503.7C1050.19,-492.85 1050.19,-478.92 1050.19,-468.1"/>
</g>
<!-- 73 -->
<g id="node74" class="node">
<title>73</title>
<ellipse fill="none" stroke="black" cx="1142.19" cy="-450" rx="27" ry="18"/>
<text text-anchor="middle" x="1142.19" y="-444.95" font-family="Times,serif" font-size="14.00">)</text>
</g>
<!-- 59&#45;&#45;73 -->
<g id="edge63" class="edge">
<title>59&#45;&#45;73</title>
<path fill="none" stroke="black" d="M1069.7,-506.15C1086.05,-493.71 1109.17,-476.12 1124.87,-464.17"/>
</g>
<!-- 62 -->
<g id="node63" class="node">
<title>62</title>
<ellipse fill="none" stroke="black" cx="1050.19" cy="-378" rx="39.07" ry="18"/>
<text text-anchor="middle" x="1050.19" y="-372.95" font-family="Times,serif" font-size="14.00">relation</text>
</g>
<!-- 61&#45;&#45;62 -->
<g id="edge60" class="edge">
<title>61&#45;&#45;62</title>
<path fill="none" stroke="black" d="M1050.19,-431.7C1050.19,-420.85 1050.19,-406.92 1050.19,-396.1"/>
</g>
<!-- 63 -->
<g id="node64" class="node">
<title>63</title>
<ellipse fill="none" stroke="black" cx="1050.19" cy="-306" rx="74.38" ry="18"/>
<text text-anchor="middle" x="1050.19" y="-300.95" font-family="Times,serif" font-size="14.00">simple statement</text>
</g>
<!-- 62&#45;&#45;63 -->
<g id="edge59" class="edge">
<title>62&#45;&#45;63</title>
<path fill="none" stroke="black" d="M1050.19,-359.7C1050.19,-348.85 1050.19,-334.92 1050.19,-324.1"/>
</g>
<!-- 64 -->
<g id="node65" class="node">
<title>64</title>
<ellipse fill="none" stroke="black" cx="1050.19" cy="-234" rx="28.32" ry="18"/>
<text text-anchor="middle" x="1050.19" y="-228.95" font-family="Times,serif" font-size="14.00">term</text>
</g>
<!-- 63&#45;&#45;64 -->
<g id="edge58" class="edge">
<title>63&#45;&#45;64</title>
<path fill="none" stroke="black" d="M1050.19,-287.7C1050.19,-276.85 1050.19,-262.92 1050.19,-252.1"/>
</g>
<!-- 65 -->
<g id="node66" class="node">
<title>65</title>
<ellipse fill="none" stroke="black" cx="917.19" cy="-162" rx="44.19" ry="18"/>
<text text-anchor="middle" x="917.19" y="-156.95" font-family="Times,serif" font-size="14.00">factor v1</text>
</g>
<!-- 64&#45;&#45;65 -->
<g id="edge52" class="edge">
<title>64&#45;&#45;65</title>
<path fill="none" stroke="black" d="M1028.82,-221.75C1005.61,-209.54 968.53,-190.02 943.54,-176.87"/>
</g>
<!-- 68 -->
<g id="node69" class="node">
<title>68</title>
<ellipse fill="none" stroke="black" cx="1050.19" cy="-162" rx="71.31" ry="18"/>
<text text-anchor="middle" x="1050.19" y="-156.95" font-family="Times,serif" font-size="14.00">mdmr operation</text>
</g>
<!-- 64&#45;&#45;68 -->
<g id="edge54" class="edge">
<title>64&#45;&#45;68</title>
<path fill="none" stroke="black" d="M1050.19,-215.7C1050.19,-204.85 1050.19,-190.92 1050.19,-180.1"/>
</g>
<!-- 70 -->
<g id="node71" class="node">
<title>70</title>
<ellipse fill="none" stroke="black" cx="1183.19" cy="-162" rx="44.19" ry="18"/>
<text text-anchor="middle" x="1183.19" y="-156.95" font-family="Times,serif" font-size="14.00">factor v1</text>
</g>
<!-- 64&#45;&#45;70 -->
<g id="edge57" class="edge">
<title>64&#45;&#45;70</title>
<path fill="none" stroke="black" d="M1071.55,-221.75C1094.76,-209.54 1131.84,-190.02 1156.84,-176.87"/>
</g>
<!-- 66 -->
<g id="node67" class="node">
<title>66</title>
<ellipse fill="none" stroke="black" cx="917.19" cy="-90" rx="40.6" ry="18"/>
<text text-anchor="middle" x="917.19" y="-84.95" font-family="Times,serif" font-size="14.00">primary</text>
</g>
<!-- 65&#45;&#45;66 -->
<g id="edge51" class="edge">
<title>65&#45;&#45;66</title>
<path fill="none" stroke="black" d="M917.19,-143.7C917.19,-132.85 917.19,-118.92 917.19,-108.1"/>
</g>
<!-- 67 -->
<g id="node68" class="node">
<title>67</title>
<ellipse fill="none" stroke="black" cx="917.19" cy="-18" rx="27" ry="18"/>
<text text-anchor="middle" x="917.19" y="-12.95" font-family="Times,serif" font-size="14.00">q</text>
</g>
<!-- 66&#45;&#45;67 -->
<g id="edge50" class="edge">
<title>66&#45;&#45;67</title>
<path fill="none" stroke="black" d="M917.19,-71.7C917.19,-60.85 917.19,-46.92 917.19,-36.1"/>
</g>
<!-- 69 -->
<g id="node70" class="node">
<title>69</title>
<ellipse fill="none" stroke="black" cx="1050.19" cy="-90" rx="27" ry="18"/>
<text text-anchor="middle" x="1050.19" y="-84.95" font-family="Times,serif" font-size="14.00">*</text>
</g>
<!-- 68&#45;&#45;69 -->
<g id="edge53" class="edge">
<title>68&#45;&#45;69</title>
<path fill="none" stroke="black" d="M1050.19,-143.7C1050.19,-132.85 1050.19,-118.92 1050.19,-108.1"/>
</g>
<!-- 71 -->
<g id="node72" class="node">
<title>71</title>
<ellipse fill="none" stroke="black" cx="1183.19" cy="-90" rx="40.6" ry="18"/>
<text text-anchor="middle" x="1183.19" y="-84.95" font-family="Times,serif" font-size="14.00">primary</text>
</g>
<!-- 70&#45;&#45;71 -->
<g id="edge56" class="edge">
<title>70&#45;&#45;71</title>
<path fill="none" stroke="black" d="M1183.19,-143.7C1183.19,-132.85 1183.19,-118.92 1183.19,-108.1"/>
</g>
<!-- 72 -->
<g id="node73" class="node">
<title>72</title>
<ellipse fill="none" stroke="black" cx="1183.19" cy="-18" rx="27" ry="18"/>
<text text-anchor="middle" x="1183.19" y="-12.95" font-family="Times,serif" font-size="14.00">10</text>
</g>
<!-- 71&#45;&#45;72 -->
<g id="edge55" class="edge">
<title>71&#45;&#45;72</title>
<path fill="none" stroke="black" d="M1183.19,-71.7C1183.19,-60.85 1183.19,-46.92 1183.19,-36.1"/>
</g>
<!-- 75 -->
<g id="node76" class="node">
<title>75</title>
<ellipse fill="none" stroke="black" cx="1183.19" cy="-522" rx="27" ry="18"/>
<text text-anchor="middle" x="1183.19" y="-516.95" font-family="Times,serif" font-size="14.00">/</text>
</g>
<!-- 74&#45;&#45;75 -->
<g id="edge66" class="edge">
<title>74&#45;&#45;75</title>
<path fill="none" stroke="black" d="M1183.19,-575.7C1183.19,-564.85 1183.19,-550.92 1183.19,-540.1"/>
</g>
<!-- 77 -->
<g id="node78" class="node">
<title>77</title>
<ellipse fill="none" stroke="black" cx="1316.19" cy="-522" rx="40.6" ry="18"/>
<text text-anchor="middle" x="1316.19" y="-516.95" font-family="Times,serif" font-size="14.00">primary</text>
</g>
<!-- 76&#45;&#45;77 -->
<g id="edge69" class="edge">
<title>76&#45;&#45;77</title>
<path fill="none" stroke="black" d="M1316.19,-575.7C1316.19,-564.85 1316.19,-550.92 1316.19,-540.1"/>
</g>
<!-- 78 -->
<g id="node79" class="node">
<title>78</title>
<ellipse fill="none" stroke="black" cx="1316.19" cy="-450" rx="27" ry="18"/>
<text text-anchor="middle" x="1316.19" y="-444.95" font-family="Times,serif" font-size="14.00">42</text>
</g>
<!-- 77&#45;&#45;78 -->
<g id="edge68" class="edge">
<title>77&#45;&#45;78</title>
<path fill="none" stroke="black" d="M1316.19,-503.7C1316.19,-492.85 1316.19,-478.92 1316.19,-468.1"/>
</g>
</g>
</svg>
