<?xml version="1.0" encoding="UTF-8" standalone="no"?>
<!DOCTYPE svg PUBLIC "-//W3C//DTD SVG 1.1//EN"
 "http://www.w3.org/Graphics/SVG/1.1/DTD/svg11.dtd">
<!-- Generated by graphviz version 10.0.1 (20240210.2158)
 -->
<!-- Title: G Pages: 1 -->
<svg width="1266pt" height="1484pt"
 viewBox="0.00 0.00 1266.37 1484.00" xmlns="http://www.w3.org/2000/svg" xmlns:xlink="http://www.w3.org/1999/xlink">
<g id="graph0" class="graph" transform="scale(1 1) rotate(0) translate(4 1480)">
<title>G</title>
<polygon fill="white" stroke="none" points="-4,4 -4,-1480 1262.37,-1480 1262.37,4 -4,4"/>
<!-- 0 -->
<g id="node1" class="node">
<title>0</title>
<ellipse fill="none" stroke="black" cx="325.19" cy="-1458" rx="42.65" ry="18"/>
<text text-anchor="middle" x="325.19" y="-1452.95" font-family="Times,serif" font-size="14.00">program</text>
</g>
<!-- 1 -->
<g id="node2" class="node">
<title>1</title>
<ellipse fill="none" stroke="black" cx="325.19" cy="-1386" rx="31.39" ry="18"/>
<text text-anchor="middle" x="325.19" y="-1380.95" font-family="Times,serif" font-size="14.00">block</text>
</g>
<!-- 0&#45;&#45;1 -->
<g id="edge79" class="edge">
<title>0&#45;&#45;1</title>
<path fill="none" stroke="black" d="M325.19,-1439.7C325.19,-1428.85 325.19,-1414.92 325.19,-1404.1"/>
</g>
<!-- 2 -->
<g id="node3" class="node">
<title>2</title>
<ellipse fill="none" stroke="black" cx="325.19" cy="-1314" rx="66.71" ry="18"/>
<text text-anchor="middle" x="325.19" y="-1308.95" font-family="Times,serif" font-size="14.00">list assignment</text>
</g>
<!-- 1&#45;&#45;2 -->
<g id="edge78" class="edge">
<title>1&#45;&#45;2</title>
<path fill="none" stroke="black" d="M325.19,-1367.7C325.19,-1356.85 325.19,-1342.92 325.19,-1332.1"/>
</g>
<!-- 3 -->
<g id="node4" class="node">
<title>3</title>
<ellipse fill="none" stroke="black" cx="267.19" cy="-1242" rx="64.66" ry="18"/>
<text text-anchor="middle" x="267.19" y="-1236.95" font-family="Times,serif" font-size="14.00">assignment v1</text>
</g>
<!-- 2&#45;&#45;3 -->
<g id="edge10" class="edge">
<title>2&#45;&#45;3</title>
<path fill="none" stroke="black" d="M311.15,-1296.05C302.03,-1285.05 290.19,-1270.76 281.1,-1259.79"/>
</g>
<!-- 13 -->
<g id="node14" class="node">
<title>13</title>
<ellipse fill="none" stroke="black" cx="417.19" cy="-1242" rx="34.46" ry="18"/>
<text text-anchor="middle" x="417.19" y="-1236.95" font-family="Times,serif" font-size="14.00">tail v1</text>
</g>
<!-- 2&#45;&#45;13 -->
<g id="edge77" class="edge">
<title>2&#45;&#45;13</title>
<path fill="none" stroke="black" d="M346.52,-1296.76C362.13,-1284.89 383.11,-1268.93 398.15,-1257.48"/>
</g>
<!-- 4 -->
<g id="node5" class="node">
<title>4</title>
<ellipse fill="none" stroke="black" cx="132.19" cy="-1170" rx="27" ry="18"/>
<text text-anchor="middle" x="132.19" y="-1164.95" font-family="Times,serif" font-size="14.00">j</text>
</g>
<!-- 3&#45;&#45;4 -->
<g id="edge1" class="edge">
<title>3&#45;&#45;4</title>
<path fill="none" stroke="black" d="M237.56,-1225.64C211.95,-1212.36 175.58,-1193.5 152.96,-1181.77"/>
</g>
<!-- 5 -->
<g id="node6" class="node">
<title>5</title>
<ellipse fill="none" stroke="black" cx="204.19" cy="-1170" rx="27" ry="18"/>
<text text-anchor="middle" x="204.19" y="-1164.95" font-family="Times,serif" font-size="14.00">:=</text>
</g>
<!-- 3&#45;&#45;5 -->
<g id="edge2" class="edge">
<title>3&#45;&#45;5</title>
<path fill="none" stroke="black" d="M251.94,-1224.05C241.45,-1212.4 227.65,-1197.07 217.59,-1185.89"/>
</g>
<!-- 6 -->
<g id="node7" class="node">
<title>6</title>
<ellipse fill="none" stroke="black" cx="296.19" cy="-1170" rx="46.75" ry="18"/>
<text text-anchor="middle" x="296.19" y="-1164.95" font-family="Times,serif" font-size="14.00">statement</text>
</g>
<!-- 3&#45;&#45;6 -->
<g id="edge9" class="edge">
<title>3&#45;&#45;6</title>
<path fill="none" stroke="black" d="M274.35,-1223.7C278.85,-1212.85 284.62,-1198.92 289.1,-1188.1"/>
</g>
<!-- 7 -->
<g id="node8" class="node">
<title>7</title>
<ellipse fill="none" stroke="black" cx="296.19" cy="-1098" rx="39.07" ry="18"/>
<text text-anchor="middle" x="296.19" y="-1092.95" font-family="Times,serif" font-size="14.00">relation</text>
</g>
<!-- 6&#45;&#45;7 -->
<g id="edge8" class="edge">
<title>6&#45;&#45;7</title>
<path fill="none" stroke="black" d="M296.19,-1151.7C296.19,-1140.85 296.19,-1126.92 296.19,-1116.1"/>
</g>
<!-- 8 -->
<g id="node9" class="node">
<title>8</title>
<ellipse fill="none" stroke="black" cx="296.19" cy="-1026" rx="74.38" ry="18"/>
<text text-anchor="middle" x="296.19" y="-1020.95" font-family="Times,serif" font-size="14.00">simple statement</text>
</g>
<!-- 7&#45;&#45;8 -->
<g id="edge7" class="edge">
<title>7&#45;&#45;8</title>
<path fill="none" stroke="black" d="M296.19,-1079.7C296.19,-1068.85 296.19,-1054.92 296.19,-1044.1"/>
</g>
<!-- 9 -->
<g id="node10" class="node">
<title>9</title>
<ellipse fill="none" stroke="black" cx="296.19" cy="-954" rx="28.32" ry="18"/>
<text text-anchor="middle" x="296.19" y="-948.95" font-family="Times,serif" font-size="14.00">term</text>
</g>
<!-- 8&#45;&#45;9 -->
<g id="edge6" class="edge">
<title>8&#45;&#45;9</title>
<path fill="none" stroke="black" d="M296.19,-1007.7C296.19,-996.85 296.19,-982.92 296.19,-972.1"/>
</g>
<!-- 10 -->
<g id="node11" class="node">
<title>10</title>
<ellipse fill="none" stroke="black" cx="296.19" cy="-882" rx="44.19" ry="18"/>
<text text-anchor="middle" x="296.19" y="-876.95" font-family="Times,serif" font-size="14.00">factor v1</text>
</g>
<!-- 9&#45;&#45;10 -->
<g id="edge5" class="edge">
<title>9&#45;&#45;10</title>
<path fill="none" stroke="black" d="M296.19,-935.7C296.19,-924.85 296.19,-910.92 296.19,-900.1"/>
</g>
<!-- 11 -->
<g id="node12" class="node">
<title>11</title>
<ellipse fill="none" stroke="black" cx="296.19" cy="-810" rx="40.6" ry="18"/>
<text text-anchor="middle" x="296.19" y="-804.95" font-family="Times,serif" font-size="14.00">primary</text>
</g>
<!-- 10&#45;&#45;11 -->
<g id="edge4" class="edge">
<title>10&#45;&#45;11</title>
<path fill="none" stroke="black" d="M296.19,-863.7C296.19,-852.85 296.19,-838.92 296.19,-828.1"/>
</g>
<!-- 12 -->
<g id="node13" class="node">
<title>12</title>
<ellipse fill="none" stroke="black" cx="296.19" cy="-738" rx="27" ry="18"/>
<text text-anchor="middle" x="296.19" y="-732.95" font-family="Times,serif" font-size="14.00">10</text>
</g>
<!-- 11&#45;&#45;12 -->
<g id="edge3" class="edge">
<title>11&#45;&#45;12</title>
<path fill="none" stroke="black" d="M296.19,-791.7C296.19,-780.85 296.19,-766.92 296.19,-756.1"/>
</g>
<!-- 14 -->
<g id="node15" class="node">
<title>14</title>
<ellipse fill="none" stroke="black" cx="388.19" cy="-1170" rx="27" ry="18"/>
<text text-anchor="middle" x="388.19" y="-1164.95" font-family="Times,serif" font-size="14.00">;</text>
</g>
<!-- 13&#45;&#45;14 -->
<g id="edge11" class="edge">
<title>13&#45;&#45;14</title>
<path fill="none" stroke="black" d="M410.17,-1224.05C405.61,-1213.05 399.69,-1198.76 395.14,-1187.79"/>
</g>
<!-- 15 -->
<g id="node16" class="node">
<title>15</title>
<ellipse fill="none" stroke="black" cx="498.19" cy="-1170" rx="64.66" ry="18"/>
<text text-anchor="middle" x="498.19" y="-1164.95" font-family="Times,serif" font-size="14.00">assignment v1</text>
</g>
<!-- 13&#45;&#45;15 -->
<g id="edge75" class="edge">
<title>13&#45;&#45;15</title>
<path fill="none" stroke="black" d="M434.36,-1226.15C447.46,-1214.84 465.49,-1199.26 479.05,-1187.54"/>
</g>
<!-- 79 -->
<g id="node80" class="node">
<title>79</title>
<ellipse fill="none" stroke="black" cx="615.19" cy="-1170" rx="34.46" ry="18"/>
<text text-anchor="middle" x="615.19" y="-1164.95" font-family="Times,serif" font-size="14.00">tail v2</text>
</g>
<!-- 13&#45;&#45;79 -->
<g id="edge76" class="edge">
<title>13&#45;&#45;79</title>
<path fill="none" stroke="black" d="M445.9,-1231.63C477.12,-1221.34 528.42,-1204.12 572.19,-1188 577.46,-1186.06 583.06,-1183.91 588.42,-1181.81"/>
</g>
<!-- 16 -->
<g id="node17" class="node">
<title>16</title>
<ellipse fill="none" stroke="black" cx="498.19" cy="-1098" rx="31.39" ry="18"/>
<text text-anchor="middle" x="498.19" y="-1092.95" font-family="Times,serif" font-size="14.00">block</text>
</g>
<!-- 15&#45;&#45;16 -->
<g id="edge74" class="edge">
<title>15&#45;&#45;16</title>
<path fill="none" stroke="black" d="M498.19,-1151.7C498.19,-1140.85 498.19,-1126.92 498.19,-1116.1"/>
</g>
<!-- 17 -->
<g id="node18" class="node">
<title>17</title>
<ellipse fill="none" stroke="black" cx="498.19" cy="-1026" rx="66.71" ry="18"/>
<text text-anchor="middle" x="498.19" y="-1020.95" font-family="Times,serif" font-size="14.00">list assignment</text>
</g>
<!-- 16&#45;&#45;17 -->
<g id="edge73" class="edge">
<title>16&#45;&#45;17</title>
<path fill="none" stroke="black" d="M498.19,-1079.7C498.19,-1068.85 498.19,-1054.92 498.19,-1044.1"/>
</g>
<!-- 18 -->
<g id="node19" class="node">
<title>18</title>
<ellipse fill="none" stroke="black" cx="477.19" cy="-954" rx="64.66" ry="18"/>
<text text-anchor="middle" x="477.19" y="-948.95" font-family="Times,serif" font-size="14.00">assignment v1</text>
</g>
<!-- 17&#45;&#45;18 -->
<g id="edge71" class="edge">
<title>17&#45;&#45;18</title>
<path fill="none" stroke="black" d="M493,-1007.7C489.74,-996.85 485.56,-982.92 482.32,-972.1"/>
</g>
<!-- 78 -->
<g id="node79" class="node">
<title>78</title>
<ellipse fill="none" stroke="black" cx="594.19" cy="-954" rx="34.46" ry="18"/>
<text text-anchor="middle" x="594.19" y="-948.95" font-family="Times,serif" font-size="14.00">tail v2</text>
</g>
<!-- 17&#45;&#45;78 -->
<g id="edge72" class="edge">
<title>17&#45;&#45;78</title>
<path fill="none" stroke="black" d="M520.45,-1008.76C536.85,-996.81 558.93,-980.71 574.64,-969.25"/>
</g>
<!-- 19 -->
<g id="node20" class="node">
<title>19</title>
<ellipse fill="none" stroke="black" cx="405.19" cy="-882" rx="27" ry="18"/>
<text text-anchor="middle" x="405.19" y="-876.95" font-family="Times,serif" font-size="14.00">i</text>
</g>
<!-- 18&#45;&#45;19 -->
<g id="edge12" class="edge">
<title>18&#45;&#45;19</title>
<path fill="none" stroke="black" d="M460.12,-936.41C447.81,-924.44 431.38,-908.46 419.7,-897.11"/>
</g>
<!-- 20 -->
<g id="node21" class="node">
<title>20</title>
<ellipse fill="none" stroke="black" cx="477.19" cy="-882" rx="27" ry="18"/>
<text text-anchor="middle" x="477.19" y="-876.95" font-family="Times,serif" font-size="14.00">:=</text>
</g>
<!-- 18&#45;&#45;20 -->
<g id="edge13" class="edge">
<title>18&#45;&#45;20</title>
<path fill="none" stroke="black" d="M477.19,-935.7C477.19,-924.85 477.19,-910.92 477.19,-900.1"/>
</g>
<!-- 21 -->
<g id="node22" class="node">
<title>21</title>
<ellipse fill="none" stroke="black" cx="569.19" cy="-882" rx="46.75" ry="18"/>
<text text-anchor="middle" x="569.19" y="-876.95" font-family="Times,serif" font-size="14.00">statement</text>
</g>
<!-- 18&#45;&#45;21 -->
<g id="edge70" class="edge">
<title>18&#45;&#45;21</title>
<path fill="none" stroke="black" d="M498.52,-936.76C513.71,-925.21 533.97,-909.79 548.91,-898.43"/>
</g>
<!-- 22 -->
<g id="node23" class="node">
<title>22</title>
<ellipse fill="none" stroke="black" cx="433.19" cy="-810" rx="39.07" ry="18"/>
<text text-anchor="middle" x="433.19" y="-804.95" font-family="Times,serif" font-size="14.00">relation</text>
</g>
<!-- 21&#45;&#45;22 -->
<g id="edge40" class="edge">
<title>21&#45;&#45;22</title>
<path fill="none" stroke="black" d="M541.99,-867C517.65,-854.47 482.24,-836.25 458.5,-824.03"/>
</g>
<!-- 49 -->
<g id="node50" class="node">
<title>49</title>
<ellipse fill="none" stroke="black" cx="569.19" cy="-810" rx="73.36" ry="18"/>
<text text-anchor="middle" x="569.19" y="-804.95" font-family="Times,serif" font-size="14.00">logical operation</text>
</g>
<!-- 21&#45;&#45;49 -->
<g id="edge42" class="edge">
<title>21&#45;&#45;49</title>
<path fill="none" stroke="black" d="M569.19,-863.7C569.19,-852.85 569.19,-838.92 569.19,-828.1"/>
</g>
<!-- 51 -->
<g id="node52" class="node">
<title>51</title>
<ellipse fill="none" stroke="black" cx="844.19" cy="-810" rx="39.07" ry="18"/>
<text text-anchor="middle" x="844.19" y="-804.95" font-family="Times,serif" font-size="14.00">relation</text>
</g>
<!-- 21&#45;&#45;51 -->
<g id="edge69" class="edge">
<title>21&#45;&#45;51</title>
<path fill="none" stroke="black" d="M607.42,-871.27C661.44,-857.52 759.22,-832.63 810.59,-819.55"/>
</g>
<!-- 23 -->
<g id="node24" class="node">
<title>23</title>
<ellipse fill="none" stroke="black" cx="427.19" cy="-738" rx="74.38" ry="18"/>
<text text-anchor="middle" x="427.19" y="-732.95" font-family="Times,serif" font-size="14.00">simple statement</text>
</g>
<!-- 22&#45;&#45;23 -->
<g id="edge39" class="edge">
<title>22&#45;&#45;23</title>
<path fill="none" stroke="black" d="M431.7,-791.7C430.77,-780.85 429.58,-766.92 428.65,-756.1"/>
</g>
<!-- 24 -->
<g id="node25" class="node">
<title>24</title>
<ellipse fill="none" stroke="black" cx="377.19" cy="-666" rx="28.32" ry="18"/>
<text text-anchor="middle" x="377.19" y="-660.95" font-family="Times,serif" font-size="14.00">term</text>
</g>
<!-- 23&#45;&#45;24 -->
<g id="edge38" class="edge">
<title>23&#45;&#45;24</title>
<path fill="none" stroke="black" d="M415.08,-720.05C406.99,-708.73 396.41,-693.92 388.49,-682.83"/>
</g>
<!-- 25 -->
<g id="node26" class="node">
<title>25</title>
<ellipse fill="none" stroke="black" cx="44.19" cy="-594" rx="44.19" ry="18"/>
<text text-anchor="middle" x="44.19" y="-588.95" font-family="Times,serif" font-size="14.00">factor v1</text>
</g>
<!-- 24&#45;&#45;25 -->
<g id="edge16" class="edge">
<title>24&#45;&#45;25</title>
<path fill="none" stroke="black" d="M349.52,-660.92C298.98,-653.22 188.53,-635.2 97.19,-612 90.72,-610.36 83.89,-608.37 77.37,-606.33"/>
</g>
<!-- 28 -->
<g id="node29" class="node">
<title>28</title>
<ellipse fill="none" stroke="black" cx="177.19" cy="-594" rx="71.31" ry="18"/>
<text text-anchor="middle" x="177.19" y="-588.95" font-family="Times,serif" font-size="14.00">mdmr operation</text>
</g>
<!-- 24&#45;&#45;28 -->
<g id="edge18" class="edge">
<title>24&#45;&#45;28</title>
<path fill="none" stroke="black" d="M352.66,-656.42C319.07,-644.66 258.33,-623.4 217.87,-609.24"/>
</g>
<!-- 30 -->
<g id="node31" class="node">
<title>30</title>
<ellipse fill="none" stroke="black" cx="310.19" cy="-594" rx="44.19" ry="18"/>
<text text-anchor="middle" x="310.19" y="-588.95" font-family="Times,serif" font-size="14.00">factor v1</text>
</g>
<!-- 24&#45;&#45;30 -->
<g id="edge32" class="edge">
<title>24&#45;&#45;30</title>
<path fill="none" stroke="black" d="M362.98,-650.15C352.07,-638.76 337.02,-623.03 325.78,-611.29"/>
</g>
<!-- 44 -->
<g id="node45" class="node">
<title>44</title>
<ellipse fill="none" stroke="black" cx="443.19" cy="-594" rx="71.31" ry="18"/>
<text text-anchor="middle" x="443.19" y="-588.95" font-family="Times,serif" font-size="14.00">mdmr operation</text>
</g>
<!-- 24&#45;&#45;44 -->
<g id="edge34" class="edge">
<title>24&#45;&#45;44</title>
<path fill="none" stroke="black" d="M391.18,-650.15C401.78,-638.92 416.34,-623.48 427.36,-611.79"/>
</g>
<!-- 46 -->
<g id="node47" class="node">
<title>46</title>
<ellipse fill="none" stroke="black" cx="576.19" cy="-594" rx="44.19" ry="18"/>
<text text-anchor="middle" x="576.19" y="-588.95" font-family="Times,serif" font-size="14.00">factor v1</text>
</g>
<!-- 24&#45;&#45;46 -->
<g id="edge37" class="edge">
<title>24&#45;&#45;46</title>
<path fill="none" stroke="black" d="M401.59,-656.42C437.29,-643.86 503.83,-620.45 543.66,-606.44"/>
</g>
<!-- 26 -->
<g id="node27" class="node">
<title>26</title>
<ellipse fill="none" stroke="black" cx="44.19" cy="-522" rx="40.6" ry="18"/>
<text text-anchor="middle" x="44.19" y="-516.95" font-family="Times,serif" font-size="14.00">primary</text>
</g>
<!-- 25&#45;&#45;26 -->
<g id="edge15" class="edge">
<title>25&#45;&#45;26</title>
<path fill="none" stroke="black" d="M44.19,-575.7C44.19,-564.85 44.19,-550.92 44.19,-540.1"/>
</g>
<!-- 27 -->
<g id="node28" class="node">
<title>27</title>
<ellipse fill="none" stroke="black" cx="44.19" cy="-450" rx="27" ry="18"/>
<text text-anchor="middle" x="44.19" y="-444.95" font-family="Times,serif" font-size="14.00">j</text>
</g>
<!-- 26&#45;&#45;27 -->
<g id="edge14" class="edge">
<title>26&#45;&#45;27</title>
<path fill="none" stroke="black" d="M44.19,-503.7C44.19,-492.85 44.19,-478.92 44.19,-468.1"/>
</g>
<!-- 29 -->
<g id="node30" class="node">
<title>29</title>
<ellipse fill="none" stroke="black" cx="177.19" cy="-522" rx="27" ry="18"/>
<text text-anchor="middle" x="177.19" y="-516.95" font-family="Times,serif" font-size="14.00">*</text>
</g>
<!-- 28&#45;&#45;29 -->
<g id="edge17" class="edge">
<title>28&#45;&#45;29</title>
<path fill="none" stroke="black" d="M177.19,-575.7C177.19,-564.85 177.19,-550.92 177.19,-540.1"/>
</g>
<!-- 31 -->
<g id="node32" class="node">
<title>31</title>
<ellipse fill="none" stroke="black" cx="310.19" cy="-522" rx="40.6" ry="18"/>
<text text-anchor="middle" x="310.19" y="-516.95" font-family="Times,serif" font-size="14.00">primary</text>
</g>
<!-- 30&#45;&#45;31 -->
<g id="edge31" class="edge">
<title>30&#45;&#45;31</title>
<path fill="none" stroke="black" d="M310.19,-575.7C310.19,-564.85 310.19,-550.92 310.19,-540.1"/>
</g>
<!-- 32 -->
<g id="node33" class="node">
<title>32</title>
<ellipse fill="none" stroke="black" cx="310.19" cy="-450" rx="46.75" ry="18"/>
<text text-anchor="middle" x="310.19" y="-444.95" font-family="Times,serif" font-size="14.00">statement</text>
</g>
<!-- 31&#45;&#45;32 -->
<g id="edge30" class="edge">
<title>31&#45;&#45;32</title>
<path fill="none" stroke="black" d="M310.19,-503.7C310.19,-492.85 310.19,-478.92 310.19,-468.1"/>
</g>
<!-- 33 -->
<g id="node34" class="node">
<title>33</title>
<ellipse fill="none" stroke="black" cx="310.19" cy="-378" rx="39.07" ry="18"/>
<text text-anchor="middle" x="310.19" y="-372.95" font-family="Times,serif" font-size="14.00">relation</text>
</g>
<!-- 32&#45;&#45;33 -->
<g id="edge29" class="edge">
<title>32&#45;&#45;33</title>
<path fill="none" stroke="black" d="M310.19,-431.7C310.19,-420.85 310.19,-406.92 310.19,-396.1"/>
</g>
<!-- 34 -->
<g id="node35" class="node">
<title>34</title>
<ellipse fill="none" stroke="black" cx="310.19" cy="-306" rx="74.38" ry="18"/>
<text text-anchor="middle" x="310.19" y="-300.95" font-family="Times,serif" font-size="14.00">simple statement</text>
</g>
<!-- 33&#45;&#45;34 -->
<g id="edge28" class="edge">
<title>33&#45;&#45;34</title>
<path fill="none" stroke="black" d="M310.19,-359.7C310.19,-348.85 310.19,-334.92 310.19,-324.1"/>
</g>
<!-- 35 -->
<g id="node36" class="node">
<title>35</title>
<ellipse fill="none" stroke="black" cx="310.19" cy="-234" rx="28.32" ry="18"/>
<text text-anchor="middle" x="310.19" y="-228.95" font-family="Times,serif" font-size="14.00">term</text>
</g>
<!-- 34&#45;&#45;35 -->
<g id="edge27" class="edge">
<title>34&#45;&#45;35</title>
<path fill="none" stroke="black" d="M310.19,-287.7C310.19,-276.85 310.19,-262.92 310.19,-252.1"/>
</g>
<!-- 36 -->
<g id="node37" class="node">
<title>36</title>
<ellipse fill="none" stroke="black" cx="177.19" cy="-162" rx="44.19" ry="18"/>
<text text-anchor="middle" x="177.19" y="-156.95" font-family="Times,serif" font-size="14.00">factor v1</text>
</g>
<!-- 35&#45;&#45;36 -->
<g id="edge21" class="edge">
<title>35&#45;&#45;36</title>
<path fill="none" stroke="black" d="M288.82,-221.75C265.61,-209.54 228.53,-190.02 203.54,-176.87"/>
</g>
<!-- 39 -->
<g id="node40" class="node">
<title>39</title>
<ellipse fill="none" stroke="black" cx="310.19" cy="-162" rx="71.31" ry="18"/>
<text text-anchor="middle" x="310.19" y="-156.95" font-family="Times,serif" font-size="14.00">mdmr operation</text>
</g>
<!-- 35&#45;&#45;39 -->
<g id="edge23" class="edge">
<title>35&#45;&#45;39</title>
<path fill="none" stroke="black" d="M310.19,-215.7C310.19,-204.85 310.19,-190.92 310.19,-180.1"/>
</g>
<!-- 41 -->
<g id="node42" class="node">
<title>41</title>
<ellipse fill="none" stroke="black" cx="443.19" cy="-162" rx="44.19" ry="18"/>
<text text-anchor="middle" x="443.19" y="-156.95" font-family="Times,serif" font-size="14.00">factor v1</text>
</g>
<!-- 35&#45;&#45;41 -->
<g id="edge26" class="edge">
<title>35&#45;&#45;41</title>
<path fill="none" stroke="black" d="M331.55,-221.75C354.76,-209.54 391.84,-190.02 416.84,-176.87"/>
</g>
<!-- 37 -->
<g id="node38" class="node">
<title>37</title>
<ellipse fill="none" stroke="black" cx="177.19" cy="-90" rx="40.6" ry="18"/>
<text text-anchor="middle" x="177.19" y="-84.95" font-family="Times,serif" font-size="14.00">primary</text>
</g>
<!-- 36&#45;&#45;37 -->
<g id="edge20" class="edge">
<title>36&#45;&#45;37</title>
<path fill="none" stroke="black" d="M177.19,-143.7C177.19,-132.85 177.19,-118.92 177.19,-108.1"/>
</g>
<!-- 38 -->
<g id="node39" class="node">
<title>38</title>
<ellipse fill="none" stroke="black" cx="177.19" cy="-18" rx="27" ry="18"/>
<text text-anchor="middle" x="177.19" y="-12.95" font-family="Times,serif" font-size="14.00">q</text>
</g>
<!-- 37&#45;&#45;38 -->
<g id="edge19" class="edge">
<title>37&#45;&#45;38</title>
<path fill="none" stroke="black" d="M177.19,-71.7C177.19,-60.85 177.19,-46.92 177.19,-36.1"/>
</g>
<!-- 40 -->
<g id="node41" class="node">
<title>40</title>
<ellipse fill="none" stroke="black" cx="310.19" cy="-90" rx="27" ry="18"/>
<text text-anchor="middle" x="310.19" y="-84.95" font-family="Times,serif" font-size="14.00">*</text>
</g>
<!-- 39&#45;&#45;40 -->
<g id="edge22" class="edge">
<title>39&#45;&#45;40</title>
<path fill="none" stroke="black" d="M310.19,-143.7C310.19,-132.85 310.19,-118.92 310.19,-108.1"/>
</g>
<!-- 42 -->
<g id="node43" class="node">
<title>42</title>
<ellipse fill="none" stroke="black" cx="443.19" cy="-90" rx="40.6" ry="18"/>
<text text-anchor="middle" x="443.19" y="-84.95" font-family="Times,serif" font-size="14.00">primary</text>
</g>
<!-- 41&#45;&#45;42 -->
<g id="edge25" class="edge">
<title>41&#45;&#45;42</title>
<path fill="none" stroke="black" d="M443.19,-143.7C443.19,-132.85 443.19,-118.92 443.19,-108.1"/>
</g>
<!-- 43 -->
<g id="node44" class="node">
<title>43</title>
<ellipse fill="none" stroke="black" cx="443.19" cy="-18" rx="27" ry="18"/>
<text text-anchor="middle" x="443.19" y="-12.95" font-family="Times,serif" font-size="14.00">10</text>
</g>
<!-- 42&#45;&#45;43 -->
<g id="edge24" class="edge">
<title>42&#45;&#45;43</title>
<path fill="none" stroke="black" d="M443.19,-71.7C443.19,-60.85 443.19,-46.92 443.19,-36.1"/>
</g>
<!-- 45 -->
<g id="node46" class="node">
<title>45</title>
<ellipse fill="none" stroke="black" cx="443.19" cy="-522" rx="27" ry="18"/>
<text text-anchor="middle" x="443.19" y="-516.95" font-family="Times,serif" font-size="14.00">/</text>
</g>
<!-- 44&#45;&#45;45 -->
<g id="edge33" class="edge">
<title>44&#45;&#45;45</title>
<path fill="none" stroke="black" d="M443.19,-575.7C443.19,-564.85 443.19,-550.92 443.19,-540.1"/>
</g>
<!-- 47 -->
<g id="node48" class="node">
<title>47</title>
<ellipse fill="none" stroke="black" cx="576.19" cy="-522" rx="40.6" ry="18"/>
<text text-anchor="middle" x="576.19" y="-516.95" font-family="Times,serif" font-size="14.00">primary</text>
</g>
<!-- 46&#45;&#45;47 -->
<g id="edge36" class="edge">
<title>46&#45;&#45;47</title>
<path fill="none" stroke="black" d="M576.19,-575.7C576.19,-564.85 576.19,-550.92 576.19,-540.1"/>
</g>
<!-- 48 -->
<g id="node49" class="node">
<title>48</title>
<ellipse fill="none" stroke="black" cx="576.19" cy="-450" rx="27" ry="18"/>
<text text-anchor="middle" x="576.19" y="-444.95" font-family="Times,serif" font-size="14.00">42</text>
</g>
<!-- 47&#45;&#45;48 -->
<g id="edge35" class="edge">
<title>47&#45;&#45;48</title>
<path fill="none" stroke="black" d="M576.19,-503.7C576.19,-492.85 576.19,-478.92 576.19,-468.1"/>
</g>
<!-- 50 -->
<g id="node51" class="node">
<title>50</title>
<ellipse fill="none" stroke="black" cx="569.19" cy="-738" rx="27" ry="18"/>
<text text-anchor="middle" x="569.19" y="-732.95" font-family="Times,serif" font-size="14.00">or</text>
</g>
<!-- 49&#45;&#45;50 -->
<g id="edge41" class="edge">
<title>49&#45;&#45;50</title>
<path fill="none" stroke="black" d="M569.19,-791.7C569.19,-780.85 569.19,-766.92 569.19,-756.1"/>
</g>
<!-- 52 -->
<g id="node53" class="node">
<title>52</title>
<ellipse fill="none" stroke="black" cx="856.19" cy="-738" rx="74.38" ry="18"/>
<text text-anchor="middle" x="856.19" y="-732.95" font-family="Times,serif" font-size="14.00">simple statement</text>
</g>
<!-- 51&#45;&#45;52 -->
<g id="edge68" class="edge">
<title>51&#45;&#45;52</title>
<path fill="none" stroke="black" d="M847.15,-791.7C849.01,-780.85 851.4,-766.92 853.25,-756.1"/>
</g>
<!-- 53 -->
<g id="node54" class="node">
<title>53</title>
<ellipse fill="none" stroke="black" cx="881.19" cy="-666" rx="28.32" ry="18"/>
<text text-anchor="middle" x="881.19" y="-660.95" font-family="Times,serif" font-size="14.00">term</text>
</g>
<!-- 52&#45;&#45;53 -->
<g id="edge67" class="edge">
<title>52&#45;&#45;53</title>
<path fill="none" stroke="black" d="M862.37,-719.7C866.3,-708.68 871.36,-694.5 875.25,-683.62"/>
</g>
<!-- 54 -->
<g id="node55" class="node">
<title>54</title>
<ellipse fill="none" stroke="black" cx="682.19" cy="-594" rx="44.19" ry="18"/>
<text text-anchor="middle" x="682.19" y="-588.95" font-family="Times,serif" font-size="14.00">factor v1</text>
</g>
<!-- 53&#45;&#45;54 -->
<g id="edge45" class="edge">
<title>53&#45;&#45;54</title>
<path fill="none" stroke="black" d="M856.78,-656.42C821.08,-643.86 754.54,-620.45 714.71,-606.44"/>
</g>
<!-- 57 -->
<g id="node58" class="node">
<title>57</title>
<ellipse fill="none" stroke="black" cx="815.19" cy="-594" rx="71.31" ry="18"/>
<text text-anchor="middle" x="815.19" y="-588.95" font-family="Times,serif" font-size="14.00">mdmr operation</text>
</g>
<!-- 53&#45;&#45;57 -->
<g id="edge47" class="edge">
<title>53&#45;&#45;57</title>
<path fill="none" stroke="black" d="M867.19,-650.15C856.59,-638.92 842.03,-623.48 831.02,-611.79"/>
</g>
<!-- 59 -->
<g id="node60" class="node">
<title>59</title>
<ellipse fill="none" stroke="black" cx="948.19" cy="-594" rx="44.19" ry="18"/>
<text text-anchor="middle" x="948.19" y="-588.95" font-family="Times,serif" font-size="14.00">factor v1</text>
</g>
<!-- 53&#45;&#45;59 -->
<g id="edge61" class="edge">
<title>53&#45;&#45;59</title>
<path fill="none" stroke="black" d="M895.4,-650.15C906.3,-638.76 921.35,-623.03 932.59,-611.29"/>
</g>
<!-- 73 -->
<g id="node74" class="node">
<title>73</title>
<ellipse fill="none" stroke="black" cx="1081.19" cy="-594" rx="71.31" ry="18"/>
<text text-anchor="middle" x="1081.19" y="-588.95" font-family="Times,serif" font-size="14.00">mdmr operation</text>
</g>
<!-- 53&#45;&#45;73 -->
<g id="edge63" class="edge">
<title>53&#45;&#45;73</title>
<path fill="none" stroke="black" d="M905.71,-656.42C939.3,-644.66 1000.04,-623.4 1040.5,-609.24"/>
</g>
<!-- 75 -->
<g id="node76" class="node">
<title>75</title>
<ellipse fill="none" stroke="black" cx="1214.19" cy="-594" rx="44.19" ry="18"/>
<text text-anchor="middle" x="1214.19" y="-588.95" font-family="Times,serif" font-size="14.00">factor v1</text>
</g>
<!-- 53&#45;&#45;75 -->
<g id="edge66" class="edge">
<title>53&#45;&#45;75</title>
<path fill="none" stroke="black" d="M908.86,-660.92C959.39,-653.22 1069.84,-635.2 1161.19,-612 1167.65,-610.36 1174.48,-608.37 1181.01,-606.33"/>
</g>
<!-- 55 -->
<g id="node56" class="node">
<title>55</title>
<ellipse fill="none" stroke="black" cx="682.19" cy="-522" rx="40.6" ry="18"/>
<text text-anchor="middle" x="682.19" y="-516.95" font-family="Times,serif" font-size="14.00">primary</text>
</g>
<!-- 54&#45;&#45;55 -->
<g id="edge44" class="edge">
<title>54&#45;&#45;55</title>
<path fill="none" stroke="black" d="M682.19,-575.7C682.19,-564.85 682.19,-550.92 682.19,-540.1"/>
</g>
<!-- 56 -->
<g id="node57" class="node">
<title>56</title>
<ellipse fill="none" stroke="black" cx="682.19" cy="-450" rx="27" ry="18"/>
<text text-anchor="middle" x="682.19" y="-444.95" font-family="Times,serif" font-size="14.00">j</text>
</g>
<!-- 55&#45;&#45;56 -->
<g id="edge43" class="edge">
<title>55&#45;&#45;56</title>
<path fill="none" stroke="black" d="M682.19,-503.7C682.19,-492.85 682.19,-478.92 682.19,-468.1"/>
</g>
<!-- 58 -->
<g id="node59" class="node">
<title>58</title>
<ellipse fill="none" stroke="black" cx="815.19" cy="-522" rx="27" ry="18"/>
<text text-anchor="middle" x="815.19" y="-516.95" font-family="Times,serif" font-size="14.00">*</text>
</g>
<!-- 57&#45;&#45;58 -->
<g id="edge46" class="edge">
<title>57&#45;&#45;58</title>
<path fill="none" stroke="black" d="M815.19,-575.7C815.19,-564.85 815.19,-550.92 815.19,-540.1"/>
</g>
<!-- 60 -->
<g id="node61" class="node">
<title>60</title>
<ellipse fill="none" stroke="black" cx="948.19" cy="-522" rx="40.6" ry="18"/>
<text text-anchor="middle" x="948.19" y="-516.95" font-family="Times,serif" font-size="14.00">primary</text>
</g>
<!-- 59&#45;&#45;60 -->
<g id="edge60" class="edge">
<title>59&#45;&#45;60</title>
<path fill="none" stroke="black" d="M948.19,-575.7C948.19,-564.85 948.19,-550.92 948.19,-540.1"/>
</g>
<!-- 61 -->
<g id="node62" class="node">
<title>61</title>
<ellipse fill="none" stroke="black" cx="948.19" cy="-450" rx="46.75" ry="18"/>
<text text-anchor="middle" x="948.19" y="-444.95" font-family="Times,serif" font-size="14.00">statement</text>
</g>
<!-- 60&#45;&#45;61 -->
<g id="edge59" class="edge">
<title>60&#45;&#45;61</title>
<path fill="none" stroke="black" d="M948.19,-503.7C948.19,-492.85 948.19,-478.92 948.19,-468.1"/>
</g>
<!-- 62 -->
<g id="node63" class="node">
<title>62</title>
<ellipse fill="none" stroke="black" cx="948.19" cy="-378" rx="39.07" ry="18"/>
<text text-anchor="middle" x="948.19" y="-372.95" font-family="Times,serif" font-size="14.00">relation</text>
</g>
<!-- 61&#45;&#45;62 -->
<g id="edge58" class="edge">
<title>61&#45;&#45;62</title>
<path fill="none" stroke="black" d="M948.19,-431.7C948.19,-420.85 948.19,-406.92 948.19,-396.1"/>
</g>
<!-- 63 -->
<g id="node64" class="node">
<title>63</title>
<ellipse fill="none" stroke="black" cx="948.19" cy="-306" rx="74.38" ry="18"/>
<text text-anchor="middle" x="948.19" y="-300.95" font-family="Times,serif" font-size="14.00">simple statement</text>
</g>
<!-- 62&#45;&#45;63 -->
<g id="edge57" class="edge">
<title>62&#45;&#45;63</title>
<path fill="none" stroke="black" d="M948.19,-359.7C948.19,-348.85 948.19,-334.92 948.19,-324.1"/>
</g>
<!-- 64 -->
<g id="node65" class="node">
<title>64</title>
<ellipse fill="none" stroke="black" cx="948.19" cy="-234" rx="28.32" ry="18"/>
<text text-anchor="middle" x="948.19" y="-228.95" font-family="Times,serif" font-size="14.00">term</text>
</g>
<!-- 63&#45;&#45;64 -->
<g id="edge56" class="edge">
<title>63&#45;&#45;64</title>
<path fill="none" stroke="black" d="M948.19,-287.7C948.19,-276.85 948.19,-262.92 948.19,-252.1"/>
</g>
<!-- 65 -->
<g id="node66" class="node">
<title>65</title>
<ellipse fill="none" stroke="black" cx="815.19" cy="-162" rx="44.19" ry="18"/>
<text text-anchor="middle" x="815.19" y="-156.95" font-family="Times,serif" font-size="14.00">factor v1</text>
</g>
<!-- 64&#45;&#45;65 -->
<g id="edge50" class="edge">
<title>64&#45;&#45;65</title>
<path fill="none" stroke="black" d="M926.82,-221.75C903.61,-209.54 866.53,-190.02 841.54,-176.87"/>
</g>
<!-- 68 -->
<g id="node69" class="node">
<title>68</title>
<ellipse fill="none" stroke="black" cx="948.19" cy="-162" rx="71.31" ry="18"/>
<text text-anchor="middle" x="948.19" y="-156.95" font-family="Times,serif" font-size="14.00">mdmr operation</text>
</g>
<!-- 64&#45;&#45;68 -->
<g id="edge52" class="edge">
<title>64&#45;&#45;68</title>
<path fill="none" stroke="black" d="M948.19,-215.7C948.19,-204.85 948.19,-190.92 948.19,-180.1"/>
</g>
<!-- 70 -->
<g id="node71" class="node">
<title>70</title>
<ellipse fill="none" stroke="black" cx="1081.19" cy="-162" rx="44.19" ry="18"/>
<text text-anchor="middle" x="1081.19" y="-156.95" font-family="Times,serif" font-size="14.00">factor v1</text>
</g>
<!-- 64&#45;&#45;70 -->
<g id="edge55" class="edge">
<title>64&#45;&#45;70</title>
<path fill="none" stroke="black" d="M969.55,-221.75C992.76,-209.54 1029.84,-190.02 1054.84,-176.87"/>
</g>
<!-- 66 -->
<g id="node67" class="node">
<title>66</title>
<ellipse fill="none" stroke="black" cx="815.19" cy="-90" rx="40.6" ry="18"/>
<text text-anchor="middle" x="815.19" y="-84.95" font-family="Times,serif" font-size="14.00">primary</text>
</g>
<!-- 65&#45;&#45;66 -->
<g id="edge49" class="edge">
<title>65&#45;&#45;66</title>
<path fill="none" stroke="black" d="M815.19,-143.7C815.19,-132.85 815.19,-118.92 815.19,-108.1"/>
</g>
<!-- 67 -->
<g id="node68" class="node">
<title>67</title>
<ellipse fill="none" stroke="black" cx="815.19" cy="-18" rx="27" ry="18"/>
<text text-anchor="middle" x="815.19" y="-12.95" font-family="Times,serif" font-size="14.00">q</text>
</g>
<!-- 66&#45;&#45;67 -->
<g id="edge48" class="edge">
<title>66&#45;&#45;67</title>
<path fill="none" stroke="black" d="M815.19,-71.7C815.19,-60.85 815.19,-46.92 815.19,-36.1"/>
</g>
<!-- 69 -->
<g id="node70" class="node">
<title>69</title>
<ellipse fill="none" stroke="black" cx="948.19" cy="-90" rx="27" ry="18"/>
<text text-anchor="middle" x="948.19" y="-84.95" font-family="Times,serif" font-size="14.00">*</text>
</g>
<!-- 68&#45;&#45;69 -->
<g id="edge51" class="edge">
<title>68&#45;&#45;69</title>
<path fill="none" stroke="black" d="M948.19,-143.7C948.19,-132.85 948.19,-118.92 948.19,-108.1"/>
</g>
<!-- 71 -->
<g id="node72" class="node">
<title>71</title>
<ellipse fill="none" stroke="black" cx="1081.19" cy="-90" rx="40.6" ry="18"/>
<text text-anchor="middle" x="1081.19" y="-84.95" font-family="Times,serif" font-size="14.00">primary</text>
</g>
<!-- 70&#45;&#45;71 -->
<g id="edge54" class="edge">
<title>70&#45;&#45;71</title>
<path fill="none" stroke="black" d="M1081.19,-143.7C1081.19,-132.85 1081.19,-118.92 1081.19,-108.1"/>
</g>
<!-- 72 -->
<g id="node73" class="node">
<title>72</title>
<ellipse fill="none" stroke="black" cx="1081.19" cy="-18" rx="27" ry="18"/>
<text text-anchor="middle" x="1081.19" y="-12.95" font-family="Times,serif" font-size="14.00">10</text>
</g>
<!-- 71&#45;&#45;72 -->
<g id="edge53" class="edge">
<title>71&#45;&#45;72</title>
<path fill="none" stroke="black" d="M1081.19,-71.7C1081.19,-60.85 1081.19,-46.92 1081.19,-36.1"/>
</g>
<!-- 74 -->
<g id="node75" class="node">
<title>74</title>
<ellipse fill="none" stroke="black" cx="1081.19" cy="-522" rx="27" ry="18"/>
<text text-anchor="middle" x="1081.19" y="-516.95" font-family="Times,serif" font-size="14.00">/</text>
</g>
<!-- 73&#45;&#45;74 -->
<g id="edge62" class="edge">
<title>73&#45;&#45;74</title>
<path fill="none" stroke="black" d="M1081.19,-575.7C1081.19,-564.85 1081.19,-550.92 1081.19,-540.1"/>
</g>
<!-- 76 -->
<g id="node77" class="node">
<title>76</title>
<ellipse fill="none" stroke="black" cx="1214.19" cy="-522" rx="40.6" ry="18"/>
<text text-anchor="middle" x="1214.19" y="-516.95" font-family="Times,serif" font-size="14.00">primary</text>
</g>
<!-- 75&#45;&#45;76 -->
<g id="edge65" class="edge">
<title>75&#45;&#45;76</title>
<path fill="none" stroke="black" d="M1214.19,-575.7C1214.19,-564.85 1214.19,-550.92 1214.19,-540.1"/>
</g>
<!-- 77 -->
<g id="node78" class="node">
<title>77</title>
<ellipse fill="none" stroke="black" cx="1214.19" cy="-450" rx="27" ry="18"/>
<text text-anchor="middle" x="1214.19" y="-444.95" font-family="Times,serif" font-size="14.00">42</text>
</g>
<!-- 76&#45;&#45;77 -->
<g id="edge64" class="edge">
<title>76&#45;&#45;77</title>
<path fill="none" stroke="black" d="M1214.19,-503.7C1214.19,-492.85 1214.19,-478.92 1214.19,-468.1"/>
</g>
</g>
</svg>
